<svg id="Layer_1" data-name="Layer 1" xmlns="http://www.w3.org/2000/svg" viewBox="0 0 190.5 60"><defs><style>.cls-1{fill:#ccc}.cls-2{fill:#f2f2f2}.cls-3{fill:#1a1a1a}</style></defs><title>Artboard 36 copy 9</title><path class="cls-1" d="M3.63 2.31h186.38v56H3.63z"/><path class="cls-2" d="M-1.5 0h187v55h-187z"/><path class="cls-3" d="M51.7 29.64a5.8 5.8 0 0 1-.48 1.71 4.42 4.42 0 0 1-.93 1.33 4 4 0 0 1-1.36.86 4.77 4.77 0 0 1-1.75.31 4.56 4.56 0 0 1-1.5-.23 4.12 4.12 0 0 1-1.2-.65 4.28 4.28 0 0 1-.91-1 5.84 5.84 0 0 1-.63-1.22 7.33 7.33 0 0 1-.38-1.39 9.47 9.47 0 0 1-.13-1.47V26a9.47 9.47 0 0 1 .13-1.47 7.34 7.34 0 0 1 .38-1.39 6 6 0 0 1 .62-1.14 4.26 4.26 0 0 1 .91-1 4.15 4.15 0 0 1 1.2-.65 4.55 4.55 0 0 1 1.51-.23 4.92 4.92 0 0 1 1.82.28 3.94 3.94 0 0 1 1.36.87 4.31 4.31 0 0 1 .91 1.36 6.07 6.07 0 0 1 .46 1.75H50a5 5 0 0 0-.29-1.13 3.12 3.12 0 0 0-.54-.92 2.41 2.41 0 0 0-.83-.62 2.77 2.77 0 0 0-1.16-.23 2.72 2.72 0 0 0-1.07.2 2.47 2.47 0 0 0-.8.54 3.1 3.1 0 0 0-.56.79 5.17 5.17 0 0 0-.36 1 6.93 6.93 0 0 0-.2 1 9.09 9.09 0 0 0-.06 1v1.88a9.09 9.09 0 0 0 .06 1 7 7 0 0 0 .2 1 5.41 5.41 0 0 0 .36 1 3 3 0 0 0 .56.79 2.48 2.48 0 0 0 .8.54 2.71 2.71 0 0 0 1.08.2 2.94 2.94 0 0 0 1.16-.21 2.33 2.33 0 0 0 .83-.59 3 3 0 0 0 .54-.9 5 5 0 0 0 .28-1.08z"/><path class="cls-3" d="M53.86 28.6a6.18 6.18 0 0 1 .31-2 4.77 4.77 0 0 1 .9-1.6 4.17 4.17 0 0 1 1.42-1.07 4.4 4.4 0 0 1 1.88-.39 4.46 4.46 0 0 1 1.9.39A4.17 4.17 0 0 1 61.69 25a4.81 4.81 0 0 1 .9 1.6 6.21 6.21 0 0 1 .31 2v.2a6.17 6.17 0 0 1-.31 2 4.83 4.83 0 0 1-.9 1.6 4.14 4.14 0 0 1-1.42 1.07 4.45 4.45 0 0 1-1.88.39 4.51 4.51 0 0 1-1.9-.39 4.12 4.12 0 0 1-1.42-1.07 4.8 4.8 0 0 1-.9-1.6 6.15 6.15 0 0 1-.31-2zm1.7.2a5.52 5.52 0 0 0 .17 1.4 3.62 3.62 0 0 0 .53 1.17 2.61 2.61 0 0 0 .89.8 2.53 2.53 0 0 0 1.24.29 2.48 2.48 0 0 0 1.23-.29 2.63 2.63 0 0 0 .88-.8 3.64 3.64 0 0 0 .5-1.17 5.52 5.52 0 0 0 .17-1.4v-.2a5.36 5.36 0 0 0-.17-1.39 3.7 3.7 0 0 0-.51-1.21 2.66 2.66 0 0 0-.88-.8 2.47 2.47 0 0 0-1.24-.3 2.44 2.44 0 0 0-1.23.3 2.68 2.68 0 0 0-.88.8 3.61 3.61 0 0 0-.53 1.17 5.49 5.49 0 0 0-.17 1.39z"/><path class="cls-3" d="M74 28.8a7.38 7.38 0 0 1-.26 2 4.93 4.93 0 0 1-.74 1.6 3.57 3.57 0 0 1-1.23 1.07 3.52 3.52 0 0 1-1.67.39 4.08 4.08 0 0 1-1.6-.29 3.33 3.33 0 0 1-1.19-.85v4.78h-1.7V23.72h1.55l.08 1.08a3.33 3.33 0 0 1 1.2-.94 3.84 3.84 0 0 1 1.63-.33 3.65 3.65 0 0 1 1.69.38A3.5 3.5 0 0 1 73 25a4.81 4.81 0 0 1 .75 1.6 7.66 7.66 0 0 1 .26 2zm-1.7-.19a5.79 5.79 0 0 0-.16-1.38 3.58 3.58 0 0 0-.5-1.16 2.51 2.51 0 0 0-.85-.8 2.44 2.44 0 0 0-1.2-.27 2.37 2.37 0 0 0-1.37.38 2.82 2.82 0 0 0-.89 1v4.79a2.79 2.79 0 0 0 .88 1 2.44 2.44 0 0 0 1.4.37 2.4 2.4 0 0 0 1.22-.3 2.5 2.5 0 0 0 .85-.8 3.69 3.69 0 0 0 .49-1.17 5.85 5.85 0 0 0 .16-1.39z"/><path class="cls-3" d="M80.59 30.13l.44 1.2 3-7.62H86l-5 11.48a6.86 6.86 0 0 1-.45.82 4.17 4.17 0 0 1-.66.8 3.48 3.48 0 0 1-.9.62 2.7 2.7 0 0 1-1.19.25h-.56l-.28-.05h-.21l.25-1.48h.8a1.12 1.12 0 0 0 .64-.19 2.43 2.43 0 0 0 .52-.46 3.68 3.68 0 0 0 .39-.55l.25-.47.68-1.32L76 23.72h1.9z"/><path class="cls-3" d="M101.45 32.22H108v1.44h-8.25V20.28h1.7z"/><path class="cls-3" d="M111.1 23.72h5.08v8.48h3.25v1.47h-8.33v-1.48h3.38v-7h-3.38zm3.16-2.61a1 1 0 0 1 .25-.71 1.15 1.15 0 0 1 1.53 0 1 1 0 0 1 .26.71 1 1 0 0 1-.26.69 1.2 1.2 0 0 1-1.53 0 1 1 0 0 1-.25-.7z"/><path class="cls-3" d="M123.66 23.72l.12 1.47a4 4 0 0 1 1.33-1.19 3.66 3.66 0 0 1 1.76-.45 4.32 4.32 0 0 1 1.42.22 2.72 2.72 0 0 1 1.09.69 3.13 3.13 0 0 1 .69 1.19 5.36 5.36 0 0 1 .24 1.71v6.32h-1.7v-6.3a3.7 3.7 0 0 0-.15-1.12 1.78 1.78 0 0 0-.44-.75 1.71 1.71 0 0 0-.71-.41 3.26 3.26 0 0 0-1-.13 2.67 2.67 0 0 0-1.5.43 3.16 3.16 0 0 0-1 1.13v7.13h-1.7v-9.94z"/><path class="cls-3" d="M136.41 29l-1.25 1.21v3.44h-1.71V19.54h1.71v8.64l1.11-1.2 3.26-3.27h2.07l-4 4.15 4.64 5.8h-2.16z"/></svg>