<svg id="Layer_1" data-name="Layer 1" xmlns="http://www.w3.org/2000/svg" viewBox="0 0 60 60"><defs><style>.cls-1{fill:#ccc}.cls-2{fill:#bf352e}.cls-3{fill:#fff;opacity:.98}</style></defs><title>Artboard 36 copy 14</title><path class="cls-1" d="M3.31 3.31h56v55h-56z"/><path class="cls-2" d="M0 0h57v56H0z"/><path class="cls-3" d="M22.7 38.69a11.37 11.37 0 1 1 0-22.74 10.92 10.92 0 0 1 7.61 3L27.08 22a6.26 6.26 0 0 0-4.38-1.69 6.9 6.9 0 0 0-6.83 7 7 7 0 0 0 6.83 7.09 6.33 6.33 0 0 0 6.25-4.68h-6v-4.8h10.38a15.92 15.92 0 0 1 .28 2.49c0 6.49-4.35 11.28-10.91 11.28zm15.8-13.78H41v-4.8h3.6v4.8h4.8v3.6h-4.8v4.8H41v-4.8h-4.8v-3.6h2.3"/></svg>