<svg id="Layer_1" data-name="Layer 1" xmlns="http://www.w3.org/2000/svg" viewBox="0 0 340 395"><defs><style>.cls-1{fill:#fbbc05}.cls-2{fill:none;stroke:#1a1a1a;stroke-miterlimit:10;stroke-width:10px}.cls-3{fill:#4285f4}.cls-4{fill:#00c853}.cls-5{fill:#ed4956}.cls-6{fill:#fff}.cls-7{fill:#1a1a1a}</style></defs><title>Artboard 41 copy</title><circle class="cls-1" cx="150.84" cy="171.19" r="101.75" transform="rotate(-6.45 150.769 171.132)"/><g id="_Group_" data-name="&lt;Group&gt;"><g id="_Group_2" data-name="&lt;Group&gt;"><path id="_Path_" data-name="&lt;Path&gt;" class="cls-2" d="M174.22 164.08l65.47-132.51 30.76 15.2-65.47 132.51L175 202l-.78-37.92z"/><path id="_Path_2" data-name="&lt;Path&gt;" class="cls-2" d="M175.87 163.66l28.69 15.06"/></g><path id="_Path_3" data-name="&lt;Path&gt;" class="cls-2" d="M170.56 222.8h96.61"/></g><path class="cls-3" d="M280.27 143.66a24.81 24.81 0 0 0 17.51-17.51l3.32-12.31 3.32 12.31a24.81 24.81 0 0 0 17.51 17.51l12.3 3.34-12.31 3.32a24.81 24.81 0 0 0-17.51 17.51l-3.32 12.31-3.32-12.31a24.81 24.81 0 0 0-17.51-17.51L268 147z"/><path class="cls-4" d="M17.06 29.29a17.11 17.11 0 0 0 12.08-12.07l2.29-8.49 2.29 8.49a17.11 17.11 0 0 0 12.06 12.07l8.49 2.29-8.49 2.29a17.11 17.11 0 0 0-12.07 12.06l-2.29 8.49-2.29-8.49a17.11 17.11 0 0 0-12.07-12.07l-8.49-2.29z"/><path class="cls-5" d="M157.19 22.09a12.8 12.8 0 0 0 9-9l1.71-6.35 1.71 6.35a12.8 12.8 0 0 0 9 9L185 23.8l-6.35 1.71a12.8 12.8 0 0 0-9 9l-1.71 6.35-1.71-6.35a12.8 12.8 0 0 0-9-9l-6.35-1.71z"/><path class="cls-6" d="M98.66 138.08a12.8 12.8 0 0 0 9-9l1.71-6.35 1.71 6.35a12.8 12.8 0 0 0 9 9l6.35 1.71-6.35 1.71a12.8 12.8 0 0 0-9 9l-1.71 6.35-1.71-6.35a12.8 12.8 0 0 0-9-9l-6.35-1.71z"/><path class="cls-7" d="M49.41 374.78H36.77L34 384.17h-6.9l13.14-40.46h5.86L59 384.17h-6.87zm-10.95-5.7h9.28l-4.58-15.87z"/><path class="cls-7" d="M84.53 380.06a11.16 11.16 0 0 1-3.71 3.46 9.71 9.71 0 0 1-4.88 1.24 12.09 12.09 0 0 1-4.26-.72 8.11 8.11 0 0 1-3.31-2.29 11 11 0 0 1-2.14-4 19.63 19.63 0 0 1-.76-5.85v-17.79h6.64v17.84a16.7 16.7 0 0 0 .32 3.58 5.5 5.5 0 0 0 1 2.25 3.61 3.61 0 0 0 1.65 1.22 7.28 7.28 0 0 0 2.39.35 7.93 7.93 0 0 0 4.31-1 6.58 6.58 0 0 0 2.47-2.82v-21.42h6.67v30.06h-6z"/><path class="cls-7" d="M112.7 346.83v7.28h11.36v4.95H112.7v14.42a8.34 8.34 0 0 0 .4 2.81 4.42 4.42 0 0 0 1.13 1.78 4 4 0 0 0 1.7.93 8.16 8.16 0 0 0 2.14.26 17.12 17.12 0 0 0 1.79-.1q.93-.1 1.81-.22t1.61-.28q.74-.15 1.24-.29l.75 4.58a9.89 9.89 0 0 1-1.74.76 15.71 15.71 0 0 1-2.21.57q-1.2.22-2.49.35t-2.54.13a13 13 0 0 1-4.13-.62 8.26 8.26 0 0 1-3.22-1.94 9 9 0 0 1-2.11-3.39 14.34 14.34 0 0 1-.76-5v-14.75h-7.34v-4.95h7.33v-7.28z"/><path class="cls-7" d="M132.32 368.86a18.6 18.6 0 0 1 1-6.06 14.39 14.39 0 0 1 2.75-4.86 12.62 12.62 0 0 1 4.38-3.22 14.09 14.09 0 0 1 5.86-1.17 14.26 14.26 0 0 1 5.9 1.17 12.58 12.58 0 0 1 4.39 3.22 14.2 14.2 0 0 1 2.74 4.86 18.89 18.89 0 0 1 .94 6.06v.58a19 19 0 0 1-.94 6.08 14 14 0 0 1-2.74 4.85 12.69 12.69 0 0 1-4.38 3.21 14.11 14.11 0 0 1-5.86 1.17 14.27 14.27 0 0 1-5.9-1.17 12.66 12.66 0 0 1-4.39-3.21 14.22 14.22 0 0 1-2.75-4.85 18.68 18.68 0 0 1-1-6.08zm6.64.58a16.61 16.61 0 0 0 .43 3.86 9.93 9.93 0 0 0 1.33 3.18 6.64 6.64 0 0 0 2.29 2.17 6.56 6.56 0 0 0 3.31.79 6.38 6.38 0 0 0 3.24-.79 6.71 6.71 0 0 0 2.28-2.17 10 10 0 0 0 1.33-3.18 16.61 16.61 0 0 0 .43-3.86v-.58a16.36 16.36 0 0 0-.43-3.81 9.78 9.78 0 0 0-1.33-3.17 6.9 6.9 0 0 0-2.28-2.17 7.1 7.1 0 0 0-6.57 0 6.7 6.7 0 0 0-2.28 2.17 9.94 9.94 0 0 0-1.32 3.17 16.36 16.36 0 0 0-.43 3.81z"/><path class="cls-7" d="M175.09 346.93a349.93 349.93 0 0 0-.8 36.27h5.87l-1.22-23.83c-.09-1.8-1.47-9.07-.48-10.54s2.34-.92 2.8-2.94l-2.83 2.11c8.39-.75 19.75 6.34 18.72 16-.42 3.9-3 10.06-6.29 12.39-4.41 3.1-11.82 2.87-17 3.2-3.75.24-3.78 6.12 0 5.87 6.51-.42 15.61-.39 21-4.65 4.52-3.56 8-11.58 8.27-17.21.67-12.52-13.24-22.5-24.7-21.48a3 3 0 0 0-2.83 2.16q1.52-1.62 0-.63a7.51 7.51 0 0 0-1.38.94 5.3 5.3 0 0 0-1.33 1.95c-1.18 3.1 0 7.68.13 10.89l1.32 25.74c.19 3.75 6 3.8 5.87 0a349.93 349.93 0 0 1 .8-36.27c.28-3.77-5.6-3.75-5.87 0z"/><path class="cls-7" d="M212.63 357.68l-.79 27c-.11 3.84 5.52 3.69 5.87 0 .87-9-.39-29.46 14.36-25.09 3.63 1.08 5.18-4.59 1.56-5.66-6.55-1.94-13.63 0-17.49 5.9-4.38 6.67-3.56 17.2-4.3 24.86h5.87l.79-27c.11-3.78-5.76-3.78-5.87 0z"/><path class="cls-7" d="M246.73 362.85c3.81-3.6 15.58-8.11 17.79-.23.78 2.76 0 6.54-.12 9.37l-.46 10.95h5.87l-.16-1.9c-.31-3.74-6.19-3.77-5.87 0l.16 1.9c.31 3.73 5.71 3.82 5.87 0 .25-6 .87-12 .75-18-.08-4-1.19-7.62-4.62-10-7.36-5-17.38-1.94-23.36 3.71-2.75 2.6 1.41 6.75 4.15 4.15z"/><path class="cls-7" d="M264.66 366.62c-8.48-2.33-17.83-1.6-21.16 8a7.42 7.42 0 0 0 6 9.86c5.94.82 12.31-1.21 17.44-4.06 3.31-1.84.35-6.91-3-5.07a25.34 25.34 0 0 1-10.83 3.32c-1.13.07-3.63.43-4.19-1.07-.46-1.23 1.31-3.6 2.12-4.41 3.19-3.17 8.2-1.91 12-.86 3.65 1 5.21-4.66 1.56-5.66z"/><path class="cls-7" d="M279.74 356.67l5.17 31c.52 3.09 4.81 2.47 5.66 0a150.37 150.37 0 0 0 6.85-28.78h-5.66c1.47 8.24 3.18 16.37 7.73 23.53a3 3 0 0 0 5.37-.7l7.35-25.3a3 3 0 0 0-2.83-3.72h-1.15c-3.78.05-3.79 5.93 0 5.87h1.15l-2.83-3.72-7.35 25.3 5.37-.7c-4.28-6.74-5.75-14.38-7.13-22.13-.49-2.75-5.27-2.86-5.66 0a150.37 150.37 0 0 1-6.85 28.78h5.66l-5.17-31c-.62-3.72-6.28-2.14-5.66 1.56z"/></svg>