<svg id="Layer_1" data-name="Layer 1" xmlns="http://www.w3.org/2000/svg" viewBox="0 0 251 64"><defs><style>.cls-1{fill:#b3b3b3}.cls-2{fill:#00c853}.cls-3{fill:#fff}</style></defs><title>Artboard 63</title><path class="cls-1" d="M3 4h248v60H3z"/><path class="cls-2" d="M0 0h247v61H0z"/><path class="cls-3" d="M54 32.82a2 2 0 0 0-.31-1.13 2.74 2.74 0 0 0-.79-.78 5.14 5.14 0 0 0-1.06-.53L50.76 30a16.6 16.6 0 0 1-1.57-.6 6.86 6.86 0 0 1-1.46-.86 4.35 4.35 0 0 1-1.08-1.21 3.14 3.14 0 0 1-.42-1.64 3.39 3.39 0 0 1 .43-1.69 4 4 0 0 1 1.09-1.26 4.92 4.92 0 0 1 1.52-.74 5.74 5.74 0 0 1 1.73-.31 5.42 5.42 0 0 1 1.84.32 5.08 5.08 0 0 1 1.57.89 4.35 4.35 0 0 1 1.1 1.39 4.16 4.16 0 0 1 .43 1.82H54a4.07 4.07 0 0 0-.29-1.11 2.85 2.85 0 0 0-.61-.89 2.68 2.68 0 0 0-.91-.58 3.24 3.24 0 0 0-1.19-.25 3.63 3.63 0 0 0-1 .15 2.79 2.79 0 0 0-.9.45 2.27 2.27 0 0 0-.63.74 2.15 2.15 0 0 0-.24 1 1.84 1.84 0 0 0 .32 1.07 2.75 2.75 0 0 0 .79.74 5.24 5.24 0 0 0 1 .5l1 .35q.54.17 1.09.39a9.14 9.14 0 0 1 1.07.5 6.75 6.75 0 0 1 1 .63 4.28 4.28 0 0 1 .77.8 3.53 3.53 0 0 1 .73 2.2 3.29 3.29 0 0 1-.44 1.72 4 4 0 0 1-1.13 1.22 5.12 5.12 0 0 1-1.57.73 6.43 6.43 0 0 1-1.75.25 6.18 6.18 0 0 1-1.91-.3 5.47 5.47 0 0 1-1.67-.87 4.56 4.56 0 0 1-1.2-1.39 4 4 0 0 1-.49-1.86h1.9a3.54 3.54 0 0 0 .37 1.21 3 3 0 0 0 .72.89 3 3 0 0 0 1 .55 4.09 4.09 0 0 0 1.26.19 4.26 4.26 0 0 0 1.06-.14 2.87 2.87 0 0 0 .94-.42 2.31 2.31 0 0 0 .67-.72 2 2 0 0 0 .24-1.04z"/><path class="cls-3" d="M63.12 23v2.63h4.14v1.44h-4.14V33a2.9 2.9 0 0 0 .16 1 1.65 1.65 0 0 0 .44.66 1.6 1.6 0 0 0 .65.35 2.92 2.92 0 0 0 .78.1 5.74 5.74 0 0 0 .62 0l.63-.11.57-.11.44-.1.26 1.32a2.61 2.61 0 0 1-.56.25 6.31 6.31 0 0 1-.72.18c-.26.05-.54.09-.83.12s-.58 0-.87 0a4.33 4.33 0 0 1-1.35-.21 2.81 2.81 0 0 1-1.09-.65 3.1 3.1 0 0 1-.73-1.16 4.88 4.88 0 0 1-.27-1.64v-5.91H58.4v-1.44h2.85V23z"/><path class="cls-3" d="M78.22 36.52A2 2 0 0 1 78 36a5.56 5.56 0 0 1-.1-.66 5.21 5.21 0 0 1-.63.53 4.45 4.45 0 0 1-.76.44 4.79 4.79 0 0 1-.89.3 4.43 4.43 0 0 1-1 .11 4.6 4.6 0 0 1-1.56-.25 3.64 3.64 0 0 1-1.19-.68 3 3 0 0 1-.75-1 3 3 0 0 1-.27-1.27 3.29 3.29 0 0 1 .36-1.57 3.11 3.11 0 0 1 1-1.12 4.71 4.71 0 0 1 1.57-.67 8.8 8.8 0 0 1 2.05-.22h2v-.85a2.09 2.09 0 0 0-.18-.88 1.9 1.9 0 0 0-.51-.67 2.37 2.37 0 0 0-.81-.43 3.55 3.55 0 0 0-1.07-.15 3.23 3.23 0 0 0-1 .14 2.44 2.44 0 0 0-.74.37 1.67 1.67 0 0 0-.47.55 1.4 1.4 0 0 0-.17.66h-1.77a2.6 2.6 0 0 1 .31-1.17 3.29 3.29 0 0 1 .85-1 4.46 4.46 0 0 1 1.36-.74 5.45 5.45 0 0 1 1.81-.28 6.26 6.26 0 0 1 1.72.23 3.91 3.91 0 0 1 1.37.68 3.23 3.23 0 0 1 .91 1.14 3.62 3.62 0 0 1 .33 1.6v5.05a7.13 7.13 0 0 0 .1 1.15 5.08 5.08 0 0 0 .28 1.06v.16zm-3.29-1.42a3.54 3.54 0 0 0 1-.14 3.76 3.76 0 0 0 .86-.37 3.08 3.08 0 0 0 .67-.53 2.57 2.57 0 0 0 .44-.62v-2.2h-1.71a5.44 5.44 0 0 0-2.53.48 1.6 1.6 0 0 0-.9 1.52 2 2 0 0 0 .14.74 1.55 1.55 0 0 0 .41.59A1.93 1.93 0 0 0 74 35a3 3 0 0 0 .93.11z"/><path class="cls-3" d="M90.54 25.45h1.08l.47.09a2.17 2.17 0 0 1 .36.11l-.25 1.82a9.83 9.83 0 0 0-1-.18 9.23 9.23 0 0 0-1-.05 3.49 3.49 0 0 0-2.12.59 3.42 3.42 0 0 0-1.19 1.66v7H85V25.65h1.77l.09 1.73A5 5 0 0 1 88.43 26a4.27 4.27 0 0 1 2.11-.55z"/><path class="cls-3" d="M100.17 23v2.63h4.14v1.44h-4.14V33a2.9 2.9 0 0 0 .16 1 1.65 1.65 0 0 0 .44.66 1.6 1.6 0 0 0 .65.35 2.92 2.92 0 0 0 .78.1 5.74 5.74 0 0 0 .62 0l.63-.08.57-.11.44-.1.26 1.32a2.61 2.61 0 0 1-.56.25 6.31 6.31 0 0 1-.72.18c-.26.05-.54.09-.83.12s-.58 0-.87 0a4.33 4.33 0 0 1-1.35-.21 2.81 2.81 0 0 1-1.09-.65 3.1 3.1 0 0 1-.73-1.16A4.88 4.88 0 0 1 98.3 33v-5.91h-2.85v-1.44h2.85V23z"/><path class="cls-3" d="M120.28 36.52V21.89h3.39a7.32 7.32 0 0 1 2.73.52 5.72 5.72 0 0 1 2 1.39 6 6 0 0 1 1.27 2.13 8.39 8.39 0 0 1 .45 2.75v1.08a8.38 8.38 0 0 1-.45 2.75 6 6 0 0 1-1.27 2.13 5.72 5.72 0 0 1-2 1.39 7.19 7.19 0 0 1-2.73.51zm1.89-13.1V35h1.5a4.87 4.87 0 0 0 2-.42 4 4 0 0 0 1.43-1.11 4.66 4.66 0 0 0 .84-1.66 7.65 7.65 0 0 0 .29-2.07v-1.1a7.5 7.5 0 0 0-.29-2.07 4.74 4.74 0 0 0-.84-1.65 3.93 3.93 0 0 0-1.43-1.1 5 5 0 0 0-2-.42z"/><path class="cls-3" d="M139.94 25.45h1.08l.47.09a2.17 2.17 0 0 1 .36.11l-.25 1.82a9.83 9.83 0 0 0-1-.18 9.23 9.23 0 0 0-1-.05 3.49 3.49 0 0 0-2.12.59 3.42 3.42 0 0 0-1.19 1.66v7h-1.87V25.65h1.77l.09 1.73a5 5 0 0 1 1.55-1.38 4.27 4.27 0 0 1 2.11-.55z"/><path class="cls-3" d="M152.31 36.52a2 2 0 0 1-.18-.53 5.56 5.56 0 0 1-.1-.66 5.21 5.21 0 0 1-.63.53 4.45 4.45 0 0 1-.76.44 4.79 4.79 0 0 1-.89.3 4.43 4.43 0 0 1-1 .11 4.6 4.6 0 0 1-1.56-.25 3.64 3.64 0 0 1-1.19-.68 3 3 0 0 1-.75-1 3 3 0 0 1-.27-1.27 3.29 3.29 0 0 1 .36-1.57 3.11 3.11 0 0 1 1-1.12 4.71 4.71 0 0 1 1.57-.67 8.8 8.8 0 0 1 2.05-.22h2v-.85a2.09 2.09 0 0 0-.18-.88 1.9 1.9 0 0 0-.51-.67 2.37 2.37 0 0 0-.81-.43 3.55 3.55 0 0 0-1.07-.15 3.23 3.23 0 0 0-1 .14 2.44 2.44 0 0 0-.74.37 1.67 1.67 0 0 0-.47.55 1.4 1.4 0 0 0-.17.66h-1.87a2.6 2.6 0 0 1 .31-1.17 3.29 3.29 0 0 1 .85-1 4.46 4.46 0 0 1 1.36-.74 5.45 5.45 0 0 1 1.81-.28 6.26 6.26 0 0 1 1.72.23 3.91 3.91 0 0 1 1.37.68 3.23 3.23 0 0 1 .91 1.14 3.62 3.62 0 0 1 .33 1.6v5.05a7.13 7.13 0 0 0 .1 1.15 5.08 5.08 0 0 0 .28 1.06v.16zM149 35.11a3.54 3.54 0 0 0 1-.14 3.76 3.76 0 0 0 .86-.37 3.08 3.08 0 0 0 .67-.53 2.57 2.57 0 0 0 .44-.62v-2.2h-1.73a5.44 5.44 0 0 0-2.53.48 1.6 1.6 0 0 0-.9 1.52 2 2 0 0 0 .19.75 1.55 1.55 0 0 0 .41.59 1.93 1.93 0 0 0 .68.39 3 3 0 0 0 .91.13z"/><path class="cls-3" d="M159.17 32.58l.22 1.56.27-1.56 1.74-6.93h1.2l1.73 6.93.29 1.71.27-1.71 1.21-6.93h1.65l-2.31 10.87H164l-1.7-6.66-.3-1.69-.27 1.69-1.73 6.66h-1.47l-2.31-10.87h1.65z"/><path class="cls-3" d="M170.16 25.65h5.56v9.27h3.55v1.61h-9.1v-1.61h3.7v-7.65h-3.7zm3.46-2.85a1.14 1.14 0 0 1 .28-.78 1.26 1.26 0 0 1 1.67 0 1.13 1.13 0 0 1 .28.78 1.06 1.06 0 0 1-.28.75 1.31 1.31 0 0 1-1.67 0 1.07 1.07 0 0 1-.28-.75z"/><path class="cls-3" d="M183.89 25.65l.13 1.61a4.3 4.3 0 0 1 1.46-1.32 4 4 0 0 1 1.93-.49 4.75 4.75 0 0 1 1.55.24 3 3 0 0 1 1.19.75 3.43 3.43 0 0 1 .76 1.3 5.87 5.87 0 0 1 .27 1.87v6.9h-1.86v-6.85a4 4 0 0 0-.16-1.23 2 2 0 0 0-.48-.81 1.87 1.87 0 0 0-.77-.45 3.57 3.57 0 0 0-1-.14 2.92 2.92 0 0 0-1.64.47 3.45 3.45 0 0 0-1.13 1.23v7.8h-1.86V25.65z"/><path class="cls-3" d="M194.23 31a8 8 0 0 1 .3-2.24 5.26 5.26 0 0 1 .86-1.75 4 4 0 0 1 1.37-1.15 3.94 3.94 0 0 1 1.82-.41 4.1 4.1 0 0 1 1.76.36 3.55 3.55 0 0 1 1.29 1l.09-1.19h1.69v10.67a5.08 5.08 0 0 1-.34 1.91 3.94 3.94 0 0 1-2.4 2.3 5.52 5.52 0 0 1-1.87.3 5.65 5.65 0 0 1-1-.1 6 6 0 0 1-1.1-.31 5.08 5.08 0 0 1-1.08-.58 3.59 3.59 0 0 1-.89-.89l1-1.12a4.73 4.73 0 0 0 .7.7 3.58 3.58 0 0 0 .73.46 3.39 3.39 0 0 0 .74.25 3.77 3.77 0 0 0 .74.08 3.54 3.54 0 0 0 1.2-.19 2.49 2.49 0 0 0 .91-.56 2.42 2.42 0 0 0 .58-.91 3.58 3.58 0 0 0 .2-1.25v-.93a3.63 3.63 0 0 1-1.28.95 4.21 4.21 0 0 1-1.71.33 3.81 3.81 0 0 1-1.8-.42 4 4 0 0 1-1.36-1.17 5.53 5.53 0 0 1-.86-1.75 7.56 7.56 0 0 1-.3-2.17zm1.86.21a6.65 6.65 0 0 0 .17 1.51 3.85 3.85 0 0 0 .52 1.26 2.53 2.53 0 0 0 2.22 1.17 3 3 0 0 0 .87-.12 2.46 2.46 0 0 0 .69-.33 2.7 2.7 0 0 0 .55-.5 3.54 3.54 0 0 0 .42-.64v-5a3.41 3.41 0 0 0-.42-.62 2.61 2.61 0 0 0-1.25-.81A2.94 2.94 0 0 0 199 27a2.65 2.65 0 0 0-1.34.32 2.69 2.69 0 0 0-.91.87 3.92 3.92 0 0 0-.52 1.27 6.72 6.72 0 0 0-.17 1.51z"/></svg>