<svg id="Layer_1" data-name="Layer 1" xmlns="http://www.w3.org/2000/svg" viewBox="0 0 60 60"><defs><style>.cls-1{fill:#ccc}.cls-2{fill:#00b3e3}.cls-3{fill:#fff;opacity:.98}</style></defs><title>Artboard 36 copy 5</title><path class="cls-1" d="M3.31 3.31h56v55h-56z"/><path class="cls-2" d="M0 0h57v56H0z"/><path class="cls-3" d="M42.2 21.43v.87c0 8.89-6.77 19.14-19.14 19.14a19 19 0 0 1-10.31-3 13.66 13.66 0 0 0 1.6.09 13.5 13.5 0 0 0 8.35-2.88A6.73 6.73 0 0 1 16.45 31a6.73 6.73 0 0 0 1.27.12 6.39 6.39 0 0 0 1.73-.24A6.77 6.77 0 0 1 14 24.25v-.08c0 .5 2 .81 3.09.84a6.73 6.73 0 0 1-2-9 19.11 19.11 0 0 0 13.87 7 6.73 6.73 0 0 1 11.47-6.13 13.46 13.46 0 0 0 4.27-1.63 6.75 6.75 0 0 1-3 3.72 13.45 13.45 0 0 0 3.86-.97 13.67 13.67 0 0 1-3.36 3.43z"/></svg>